{"id":"c1c3bae6-dda3-47a7-a70c-b0791b86f4d0", "recipient":"6d0100cc-6ef4-4462-840a-81e15521927e", "sender":"6d0100cc-6ef4-4462-840a-81e15521927e/task-1287", "priority":"MESSAGE_PRIORITY_HIGH", "timestamp":"2026-05-23T03:29:14.426266600Z", "renderDetails":{"messageTitle":"Generating final video finished"}, "content":"Task id \"6d0100cc-6ef4-4462-840a-81e15521927e/task-1287\" finished with result:\n\n\t\t\t\tThe command completed successfully.\n\t\t\t\tOutput:\n\t\t\t\tStarting local HTTP server...\nLaunching browser...\nNavigating to http://localhost:8082...\nOptimizing layout for Shorts...\nStarting screen recording simulation (screenshots)...\nSpinning the wheel...\nRecording finished. Closing browser and server...\nCompiling video using FFmpeg...\nffmpeg version 8.1-full_build-www.gyan.dev Copyright (c) 2000-2026 the FFmpeg developers\r\n  built with gcc 15.2.0 (Rev11, Built by MSYS2 project)\r\n  configuration: --enable-gpl --enable-version3 --enable-static --disable-w32threads --disable-autodetect --enable-cairo --enable-fontconfig --enable-iconv --enable-gnutls --enable-lcms2 --enable-libxml2 --enable-gmp --enable-bzlib --enable-lzma --enable-libsnappy --enable-zlib --enable-librist --enable-libsrt --enable-libssh --enable-libzmq --enable-avisynth --enable-libbluray --enable-libcaca --enable-libdvdnav --enable-libdvdread --enable-sdl2 --enable-libaribb24 --enable-libaribcaption --enable-libdav1d --enable-libdavs2 --enable-libopenjpeg --enable-libquirc --enable-libuavs3d --enable-libxevd --enable-libzvbi --enable-liboapv --enable-libqrencode --enable-librav1e --enable-libsvtav1 --enable-libvvenc --enable-libwebp --enable-libx264 --enable-libx265 --enable-libxavs2 --enable-libxeve --enable-libxvid --enable-libaom --enable-libjxl --enable-libsvtjpegxs --enable-libvpx --enable-mediafoundation --enable-libass --enable-frei0r --enable-libfreetype --enable-libfribidi --enable-libharfbuzz --enable-liblensfun --enable-libvidstab --enable-libvmaf --enable-libzimg --enable-amf --enable-cuda-llvm --enable-cuvid --enable-dxva2 --enable-d3d11va --enable-d3d12va --enable-ffnvcodec --enable-libvpl --enable-nvdec --enable-nvenc --enable-vaapi --enable-libshaderc --enable-vulkan --enable-libplacebo --enable-opencl --enable-libcdio --enable-openal --enable-libgme --enable-libmodplug --enable-libopenmpt --enable-libopencore-amrwb --enable-libmp3lame --enable-libshine --enable-libtheora --enable-libtwolame --enable-libvo-amrwbenc --enable-libcodec2 --enable-libilbc --enable-libgsm --enable-liblc3 --enable-libopencore-amrnb --enable-libopus --enable-libspeex --enable-libvorbis --enable-ladspa --enable-libbs2b --enable-libflite --enable-libmysofa --enable-librubberband --enable-libsoxr --enable-chromaprint --enable-whisper\r\n  libavutil      60. 26.100 / 60. 26.100\r\n  libavcodec     62. 28.100 / 62. 28.100\r\n  libavformat    62. 12.100 / 62. 12.100\r\n  libavdevice    62.  3.100 / 62.  3.100\r\n  libavfilter    11. 14.100 / 11. 14.100\r\n  libswscale      9.  5.100 /  9.  5.100\r\n  libswresample   6.  3.100 /  6.  3.100\r\nInput #0, image2, from 'C:\\Users\\smile\\snack-picker\\temp_frames\\frame_%04d.png':\r\n  Duration: 00:00:13.00, start: 0.000000, bitrate: N/A\r\n  Stream #0:0: Video: png, rgb24(pc, gbr/unknown/unknown), 1080x1920, 30 fps, 30 tbr, 30 tbn\r\nStream mapping:\r\n  Stream #0:0 -> #0:0 (png (native) -> h264 (libx264))\r\nPress [q] to stop, [?] for help\r\n[libx264 @ 000001fdf20dcf80] using cpu capabilities: MMX2 SSE2Fast SSSE3 SSE4.2 AVX FMA3 BMI2 AVX2\r\n[libx264 @ 000001fdf20dcf80] profile High, level 4.0, 4:2:0, 8-bit\r\n[libx264 @ 000001fdf20dcf80] 264 - core 165 r3223 0480cb0 - H.264/MPEG-4 AVC codec - Copyleft 2003-2025 - http://www.videolan.org/x264.html - options: cabac=1 ref=3 deblock=1:0:0 analyse=0x3:0x113 me=hex subme=7 psy=1 psy_rd=1.00:0.00 mixed_ref=1 me_range=16 chroma_me=1 trellis=1 8x8dct=1 cqm=0 deadzone=21,11 fast_pskip=1 chroma_qp_offset=-2 threads=18 lookahead_threads=3 sliced_threads=0 nr=0 decimate=1 interlaced=0 bluray_compat=0 constrained_intra=0 bframes=3 b_pyramid=2 b_adapt=1 b_bias=0 direct=1 weightb=1 open_gop=0 weightp=2 keyint=250 keyint_min=25 scenecut=40 intra_refresh=0 rc_lookahead=40 rc=crf mbtree=1 crf=23.0 qcomp=0.60 qpmin=0 qpmax=69 qpstep=4 ip_ratio=1.40 aq=1:1.00\r\nOutput #0, mp4, to 'C:\\Users\\smile\\snack-picker\\shorts.mp4':\r\n  Metadata:\r\n    encoder         : Lavf62.12.100\r\n  Stream #0:0: Video: h264 (avc1 / 0x31637661), yuv420p(tv, progressive), 1080x1920, q=2-31, 30 fps, 15360 tbn\r\n    Metadata:\r\n      encoder         : Lavc62.28.100 libx264\r\n    Side data:\r\n      CPB properties: bitrate max/min/avg: 0/0/0 buffer size: 0 vbv_delay: N/A\r\nframe=    5 fps=0.0 q=29.0 size=       0KiB time=00:00:00.10 bitrate=   3.8kbits/s speed=0.191x elapsed=0:00:00.52    \rframe=   70 fps= 68 q=29.0 size=     256KiB time=00:00:02.26 bitrate= 925.4kbits/s speed= 2.2x elapsed=0:00:01.03    \rframe=  137 fps= 88 q=29.0 size=     256KiB time=00:00:04.50 bitrate= 466.1kbits/s speed=2.88x elapsed=0:00:01.56    \rframe=  206 fps= 99 q=29.0 size=     256KiB time=00:00:06.80 bitrate= 308.5kbits/s speed=3.26x elapsed=0:00:02.08    \rframe=  270 fps=104 q=29.0 size=     256KiB time=00:00:08.93 bitrate= 234.8kbits/s speed=3.44x elapsed=0:00:02.59    \r[out#0/mp4 @ 000001fdf1b477c0] video:443KiB audio:0KiB subtitle:0KiB other streams:0KiB global headers:0KiB muxing overhead: 1.205746%\r\nframe=  390 fps=128 q=-1.0 Lsize=     448KiB time=00:00:12.93 bitrate= 283.9kbits/s speed=4.23x elapsed=0:00:03.05    \r\n[libx264 @ 000001fdf20dcf80] frame I:3     Avg QP:16.43  size: 66477\r\n[libx264 @ 000001fdf20dcf80] frame P:107   Avg QP:15.27  size:  1571\r\n[libx264 @ 000001fdf20dcf80] frame B:280   Avg QP:26.52  size:   305\r\n[libx264 @ 000001fdf20dcf80] consecutive B-frames:  3.3%  2.6%  0.8% 93.3%\r\n[libx264 @ 000001fdf20dcf80] mb I  I16..4: 27.6% 58.3% 14.1%\r\n[libx264 @ 000001fdf20dcf80] mb P  I16..4:  0.4%  3.3%  0.3%  P16..4:  1.1%  0.2%  0.1%  0.0%  0.0%    skip:94.6%\r\n[libx264 @ 000001fdf20dcf80] mb B  I16..4:  0.0%  0.2%  0.0%  B16..8:  0.8%  0.1%  0.0%  direct: 0.0%  skip:98.9%  L0:51.1% L1:47.9% BI: 1.1%\r\n[libx264 @ 000001fdf20dcf80] 8x8 transform intra:73.3% inter:66.8%\r\n[libx264 @ 000001fdf20dcf80] coded y,uvDC,uvAC intra: 11.4% 22.1% 14.7% inter: 0.1% 0.2% 0.0%\r\n[libx264 @ 000001fdf20dcf80] i16 v,h,dc,p: 64% 24%  5%  7%\r\n[libx264 @ 000001fdf20dcf80] i8 v,h,dc,ddl,ddr,vr,hd,vl,hu: 50% 17% 28%  1%  1%  1%  1%  1%  1%\r\n[libx264 @ 000001fdf20dcf80] i4 v,h,dc,ddl,ddr,vr,hd,vl,hu: 38% 21% 15%  5%  5%  4%  5%  4%  3%\r\n[libx264 @ 000001fdf20dcf80] i8c dc,h,v,p: 75% 12% 11%  2%\r\n[libx264 @ 000001fdf20dcf80] Weighted P-Frames: Y:0.9% UV:0.9%\r\n[libx264 @ 000001fdf20dcf80] ref P L0: 67.2%  2.9% 19.2% 10.7%\r\n[libx264 @ 000001fdf20dcf80] ref B L0: 49.9% 49.0%  1.2%\r\n[libx264 @ 000001fdf20dcf80] ref B L1: 97.0%  3.0%\r\n[libx264 @ 000001fdf20dcf80] kb/s:278.70\r\n\nSuccess! Video generated successfully at: C:\\Users\\smile\\snack-picker\\shorts.mp4\nCleaning up temporary frames...\n\n\nLog: file:///C:/Users/smile/.gemini/antigravity/brain/6d0100cc-6ef4-4462-840a-81e15521927e/.system_generated/tasks/task-1287.log", "sourceMetadata":{"tool":{"conversationId":"6d0100cc-6ef4-4462-840a-81e15521927e", "stepIndex":1287, "toolCall":{"id":"yb9hxv8y", "name":"run_command", "argumentsJson":"{\"CommandLine\":\"node record_shorts.js\",\"Cwd\":\"C:\\\\Users\\\\smile\\\\snack-picker\",\"WaitMsBeforeAsync\":10000,\"toolAction\":\"Regenerate final video\",\"toolSummary\":\"Generating final video\"}", "thinkingSignature":"EtEFCs4FAQw51scXGH8A+iqLd3VsrnFFLE9bH/wHa9aIiU5bWtFf6yFJudM0gRBzTyxqEQd2tNysIr2s0stY2gRqZjoPZYbuuTJpPkjSNyuWSCB9ryqaH5ucSyOvcMaE/7ftF+Y7JhKoUJqX8N4kdn1EO4cb4a7wCZ3txu7hzPQHFnpUxGUGSznFN3wMZGfaCP/AX7otr+ulwh8dggA59cvmGdMsI4aTz5cuY4vY4ROyYwzOoxfHJR9I4H86hPuaQEhs7NC/Pfdu3YShqn0vWg/oPLBZB07NW8waY3XmY/ID1/FINdLtTjHRNnHR8++UMcmh6tW4/q61jKDT9frDSjYsmc0EgSqNZAAdunRU8uKc8T9AlIKpr/E8fGXrdAzzyqSq5wEbeOy1NPjp/Gl6RQfKkzx02BxofdMc5iOi99D0sfTPGFx1EObeK9JozECIotZTaqAZVNDnu4QCwy4JFmJzjAwwbJrRNBmkWP3cO2LpIvFcFKkxIKZEfdyXeMVBLUKSa5Y0Ldo10qLX8+yDlr6QJxCnd87OfGTPP0OMrWIymqlYjSm6V8it2/JwK3drvyhW029c17u7iIFk8HYwy72iqHHHquY9iT8cS9CAPZ2TXHAREmDR6IG6CdxDfFv8LPu0nvUxU5ck7a+PTQT0PpWZdtqs754qwyD22tdnnwf7UYx2C5OFQoaMzvGR1UJrupF15WAIpurQF//laTe+LRDOa8lCesdJNw+TqzAZui0kcZcOReLxaopEmtiVgSIgjXZw8xb4hyv6e1PbwlwEPLv98/fIGxihtjgAa+197Cl7+TxQwOtW1NjGrv+A/gw2ixpOhmFEUYHg7rRQdnqab9PqSnW6F9TnBWbR/2cbUXEGzyaOtLcqe/NrjQl0C1Lo+uwNoHB7dsoTXKayIU9w01a4StEVwMHsBGlc9HIO/+5zwPrnq0ZjWErhvHWzwTAXNvSexw==", "originalName":"run_command"}}}}